{
    "asset" : {
        "generator" : "Khronos glTF Blender I/O v3.2.43",
        "version" : "2.0"
    },
    "scene" : 0,
    "scenes" : [
        {
            "name" : "Scene",
            "nodes" : [
                0,
                1,
                2,
                3
            ]
        }
    ],
    "nodes" : [
        {
            "mesh" : 0,
            "name" : "Cube",
            "scale" : [
                1,
                1,
                0.09833978861570358
            ],
            "translation" : [
                -0.001954713137820363,
                0.006465786136686802,
                -0.22382467985153198
            ]
        },
        {
            "mesh" : 1,
            "name" : "Cube1",
            "scale" : [
                0.04773359000682831,
                0.14864392578601837,
                0.0421454980969429
            ],
            "translation" : [
                0.30759143829345703,
                0.847585141658783,
                -0.10896170884370804
            ]
        },
        {
            "mesh" : 2,
            "name" : "Cube2",
            "scale" : [
                1.0415500402450562,
                1.0415500402450562,
                0.11333613097667694
            ],
            "translation" : [
                0,
                0,
                -0.17211388051509857
            ]
        },
        {
            "mesh" : 3,
            "name" : "Torus",
            "rotation" : [
                -0.5000001192092896,
                0.5,
                -0.49999991059303284,
                0.5
            ],
            "scale" : [
                0.16983264684677124,
                0.16983264684677124,
                0.16983264684677124
            ],
            "translation" : [
                -0.6248711347579956,
                0.6531875133514404,
                -0.08729936182498932
            ]
        }
    ],
    "materials" : [
        {
            "doubleSided" : true,
            "name" : "Material2",
            "pbrMetallicRoughness" : {
                "baseColorFactor" : [
                    0.02315288409590721,
                    0.1682691127061844,
                    0.5583404302597046,
                    1
                ],
                "metallicFactor" : 0,
                "roughnessFactor" : 0.5
            }
        },
        {
            "doubleSided" : true,
            "name" : "Material1",
            "pbrMetallicRoughness" : {
                "baseColorFactor" : [
                    0.10215360671281815,
                    0.10215360671281815,
                    0.10215360671281815,
                    1
                ],
                "metallicFactor" : 0,
                "roughnessFactor" : 0.5
            }
        },
        {
            "doubleSided" : true,
            "name" : "Material4",
            "pbrMetallicRoughness" : {
                "baseColorFactor" : [
                    0,
                    0,
                    0,
                    1
                ],
                "metallicFactor" : 0,
                "roughnessFactor" : 0.5
            }
        },
        {
            "doubleSided" : true,
            "name" : "Material3",
            "pbrMetallicRoughness" : {
                "baseColorFactor" : [
                    0.03361615911126137,
                    0.03361615911126137,
                    0.03361615911126137,
                    1
                ],
                "metallicFactor" : 0,
                "roughnessFactor" : 0.5
            }
        }
    ],
    "meshes" : [
        {
            "name" : "Cube6",
            "primitives" : [
                {
                    "attributes" : {
                        "POSITION" : 0,
                        "NORMAL" : 1,
                        "TEXCOORD_0" : 2
                    },
                    "indices" : 3,
                    "material" : 0
                }
            ]
        },
        {
            "name" : "Cube7",
            "primitives" : [
                {
                    "attributes" : {
                        "POSITION" : 4,
                        "NORMAL" : 5,
                        "TEXCOORD_0" : 6
                    },
                    "indices" : 7,
                    "material" : 1
                }
            ]
        },
        {
            "name" : "Cube8",
            "primitives" : [
                {
                    "attributes" : {
                        "POSITION" : 8,
                        "NORMAL" : 9,
                        "TEXCOORD_0" : 10
                    },
                    "indices" : 11,
                    "material" : 2
                }
            ]
        },
        {
            "name" : "Torus",
            "primitives" : [
                {
                    "attributes" : {
                        "POSITION" : 12,
                        "NORMAL" : 13,
                        "TEXCOORD_0" : 14
                    },
                    "indices" : 15,
                    "material" : 3
                }
            ]
        }
    ],
    "accessors" : [
        {
            "bufferView" : 0,
            "componentType" : 5126,
            "count" : 586,
            "max" : [
                1.2996169328689575,
                1.2905030250549316,
                1
            ],
            "min" : [
                -1.2996169328689575,
                -1.3007562160491943,
                -1
            ],
            "type" : "VEC3"
        },
        {
            "bufferView" : 1,
            "componentType" : 5126,
            "count" : 586,
            "type" : "VEC3"
        },
        {
            "bufferView" : 2,
            "componentType" : 5126,
            "count" : 586,
            "type" : "VEC2"
        },
        {
            "bufferView" : 3,
            "componentType" : 5123,
            "count" : 1476,
            "type" : "SCALAR"
        },
        {
            "bufferView" : 4,
            "componentType" : 5126,
            "count" : 1062,
            "max" : [
                14.588391304016113,
                1.0956109762191772,
                1.1577028036117554
            ],
            "min" : [
                -27.41791343688965,
                -12.366066932678223,
                -1.0678855180740356
            ],
            "type" : "VEC3"
        },
        {
            "bufferView" : 5,
            "componentType" : 5126,
            "count" : 1062,
            "type" : "VEC3"
        },
        {
            "bufferView" : 6,
            "componentType" : 5126,
            "count" : 1062,
            "type" : "VEC2"
        },
        {
            "bufferView" : 7,
            "componentType" : 5123,
            "count" : 1608,
            "type" : "SCALAR"
        },
        {
            "bufferView" : 8,
            "componentType" : 5126,
            "count" : 244,
            "max" : [
                1,
                1,
                1
            ],
            "min" : [
                -1,
                -1,
                -1
            ],
            "type" : "VEC3"
        },
        {
            "bufferView" : 9,
            "componentType" : 5126,
            "count" : 244,
            "type" : "VEC3"
        },
        {
            "bufferView" : 10,
            "componentType" : 5126,
            "count" : 244,
            "type" : "VEC2"
        },
        {
            "bufferView" : 11,
            "componentType" : 5123,
            "count" : 708,
            "type" : "SCALAR"
        },
        {
            "bufferView" : 12,
            "componentType" : 5126,
            "count" : 6912,
            "max" : [
                8.836682319641113,
                0.24999991059303284,
                6.743803977966309
            ],
            "min" : [
                -0.6261613368988037,
                -0.25000089406967163,
                -0.6865328550338745
            ],
            "type" : "VEC3"
        },
        {
            "bufferView" : 13,
            "componentType" : 5126,
            "count" : 6912,
            "type" : "VEC3"
        },
        {
            "bufferView" : 14,
            "componentType" : 5126,
            "count" : 6912,
            "type" : "VEC2"
        },
        {
            "bufferView" : 15,
            "componentType" : 5123,
            "count" : 10368,
            "type" : "SCALAR"
        }
    ],
    "bufferViews" : [
        {
            "buffer" : 0,
            "byteLength" : 7032,
            "byteOffset" : 0
        },
        {
            "buffer" : 0,
            "byteLength" : 7032,
            "byteOffset" : 7032
        },
        {
            "buffer" : 0,
            "byteLength" : 4688,
            "byteOffset" : 14064
        },
        {
            "buffer" : 0,
            "byteLength" : 2952,
            "byteOffset" : 18752
        },
        {
            "buffer" : 0,
            "byteLength" : 12744,
            "byteOffset" : 21704
        },
        {
            "buffer" : 0,
            "byteLength" : 12744,
            "byteOffset" : 34448
        },
        {
            "buffer" : 0,
            "byteLength" : 8496,
            "byteOffset" : 47192
        },
        {
            "buffer" : 0,
            "byteLength" : 3216,
            "byteOffset" : 55688
        },
        {
            "buffer" : 0,
            "byteLength" : 2928,
            "byteOffset" : 58904
        },
        {
            "buffer" : 0,
            "byteLength" : 2928,
            "byteOffset" : 61832
        },
        {
            "buffer" : 0,
            "byteLength" : 1952,
            "byteOffset" : 64760
        },
        {
            "buffer" : 0,
            "byteLength" : 1416,
            "byteOffset" : 66712
        },
        {
            "buffer" : 0,
            "byteLength" : 82944,
            "byteOffset" : 68128
        },
        {
            "buffer" : 0,
            "byteLength" : 82944,
            "byteOffset" : 151072
        },
        {
            "buffer" : 0,
            "byteLength" : 55296,
            "byteOffset" : 234016
        },
        {
            "buffer" : 0,
            "byteLength" : 20736,
            "byteOffset" : 289312
        }
    ],
    "buffers" : [
        {
            "byteLength" : 310048,
            "uri" : "data:application/octet-stream;base64,"
        }
    ]
}
