{
    "asset" : {
        "generator" : "Khronos glTF Blender I/O v3.2.43",
        "version" : "2.0"
    },
    "scene" : 0,
    "scenes" : [
        {
            "name" : "Scene",
            "nodes" : [
                0,
                1,
                2,
                3,
                4
            ]
        }
    ],
    "nodes" : [
        {
            "mesh" : 0,
            "name" : "Cube",
            "scale" : [
                1,
                1,
                0.09833978861570358
            ],
            "translation" : [
                0.012809544801712036,
                -0.0009162425994873047,
                -0.22382467985153198
            ]
        },
        {
            "mesh" : 1,
            "name" : "Cube1",
            "scale" : [
                0.04773359000682831,
                0.14864392578601837,
                0.0421454980969429
            ],
            "translation" : [
                0.32235586643218994,
                0.8402031064033508,
                -0.1533758044242859
            ]
        },
        {
            "mesh" : 2,
            "name" : "Cube2",
            "scale" : [
                1.0415500402450562,
                1.0415500402450562,
                0.11333613097667694
            ],
            "translation" : [
                0.014764241874217987,
                -0.007382035255432129,
                -0.17211388051509857
            ]
        },
        {
            "mesh" : 3,
            "name" : "Cube3",
            "scale" : [
                0.38096022605895996,
                0.38096022605895996,
                0.06503763794898987
            ],
            "translation" : [
                0.014764241874217987,
                -0.007382094860076904,
                -0.11674001812934875
            ]
        },
        {
            "mesh" : 4,
            "name" : "Torus",
            "rotation" : [
                -0.5000001788139343,
                0.49999988079071045,
                -0.4999997913837433,
                0.5000001192092896
            ],
            "scale" : [
                0.16983264684677124,
                0.16983264684677124,
                0.16983264684677124
            ],
            "translation" : [
                -0.6101065874099731,
                0.6458055377006531,
                -0.11962518095970154
            ]
        }
    ],
    "materials" : [
        {
            "doubleSided" : true,
            "name" : "Material2",
            "pbrMetallicRoughness" : {
                "baseColorFactor" : [
                    0.5583402514457703,
                    0.07618504017591476,
                    0.545724630355835,
                    1
                ],
                "metallicFactor" : 0,
                "roughnessFactor" : 0.5
            }
        },
        {
            "doubleSided" : true,
            "name" : "Material1",
            "pbrMetallicRoughness" : {
                "baseColorFactor" : [
                    0.10215360671281815,
                    0.10215360671281815,
                    0.10215360671281815,
                    1
                ],
                "metallicFactor" : 0,
                "roughnessFactor" : 0.5
            }
        },
        {
            "doubleSided" : true,
            "name" : "Material4",
            "pbrMetallicRoughness" : {
                "baseColorFactor" : [
                    0,
                    0,
                    0,
                    1
                ],
                "metallicFactor" : 0,
                "roughnessFactor" : 0.5
            }
        },
        {
            "doubleSided" : true,
            "name" : "Material3",
            "pbrMetallicRoughness" : {
                "baseColorFactor" : [
                    0.03361615911126137,
                    0.03361615911126137,
                    0.03361615911126137,
                    1
                ],
                "metallicFactor" : 0,
                "roughnessFactor" : 0.5
            }
        }
    ],
    "meshes" : [
        {
            "name" : "Cube6",
            "primitives" : [
                {
                    "attributes" : {
                        "POSITION" : 0,
                        "NORMAL" : 1,
                        "TEXCOORD_0" : 2
                    },
                    "indices" : 3,
                    "material" : 0
                }
            ]
        },
        {
            "name" : "Cube7",
            "primitives" : [
                {
                    "attributes" : {
                        "POSITION" : 4,
                        "NORMAL" : 5,
                        "TEXCOORD_0" : 6
                    },
                    "indices" : 7,
                    "material" : 1
                }
            ]
        },
        {
            "name" : "Cube8",
            "primitives" : [
                {
                    "attributes" : {
                        "POSITION" : 8,
                        "NORMAL" : 9,
                        "TEXCOORD_0" : 10
                    },
                    "indices" : 11,
                    "material" : 2
                }
            ]
        },
        {
            "name" : "Cube2",
            "primitives" : [
                {
                    "attributes" : {
                        "POSITION" : 12,
                        "NORMAL" : 13,
                        "TEXCOORD_0" : 14
                    },
                    "indices" : 15,
                    "material" : 2
                }
            ]
        },
        {
            "name" : "Torus",
            "primitives" : [
                {
                    "attributes" : {
                        "POSITION" : 16,
                        "NORMAL" : 17,
                        "TEXCOORD_0" : 18
                    },
                    "indices" : 19,
                    "material" : 3
                }
            ]
        }
    ],
    "accessors" : [
        {
            "bufferView" : 0,
            "componentType" : 5126,
            "count" : 586,
            "max" : [
                1.2996169328689575,
                1.2905030250549316,
                1
            ],
            "min" : [
                -1.2996169328689575,
                -1.3007562160491943,
                -1
            ],
            "type" : "VEC3"
        },
        {
            "bufferView" : 1,
            "componentType" : 5126,
            "count" : 586,
            "type" : "VEC3"
        },
        {
            "bufferView" : 2,
            "componentType" : 5126,
            "count" : 586,
            "type" : "VEC2"
        },
        {
            "bufferView" : 3,
            "componentType" : 5123,
            "count" : 1476,
            "type" : "SCALAR"
        },
        {
            "bufferView" : 4,
            "componentType" : 5126,
            "count" : 998,
            "max" : [
                14.486403465270996,
                1.0956109762191772,
                1.10518217086792
            ],
            "min" : [
                -27.835573196411133,
                -12.393126487731934,
                -1.3023312091827393
            ],
            "type" : "VEC3"
        },
        {
            "bufferView" : 5,
            "componentType" : 5126,
            "count" : 998,
            "type" : "VEC3"
        },
        {
            "bufferView" : 6,
            "componentType" : 5126,
            "count" : 998,
            "type" : "VEC2"
        },
        {
            "bufferView" : 7,
            "componentType" : 5123,
            "count" : 1506,
            "type" : "SCALAR"
        },
        {
            "bufferView" : 8,
            "componentType" : 5126,
            "count" : 244,
            "max" : [
                1,
                1,
                1
            ],
            "min" : [
                -1,
                -1,
                -1
            ],
            "type" : "VEC3"
        },
        {
            "bufferView" : 9,
            "componentType" : 5126,
            "count" : 244,
            "type" : "VEC3"
        },
        {
            "bufferView" : 10,
            "componentType" : 5126,
            "count" : 244,
            "type" : "VEC2"
        },
        {
            "bufferView" : 11,
            "componentType" : 5123,
            "count" : 708,
            "type" : "SCALAR"
        },
        {
            "bufferView" : 12,
            "componentType" : 5126,
            "count" : 24,
            "max" : [
                1,
                1,
                1
            ],
            "min" : [
                -1,
                -1,
                -1
            ],
            "type" : "VEC3"
        },
        {
            "bufferView" : 13,
            "componentType" : 5126,
            "count" : 24,
            "type" : "VEC3"
        },
        {
            "bufferView" : 14,
            "componentType" : 5126,
            "count" : 24,
            "type" : "VEC2"
        },
        {
            "bufferView" : 15,
            "componentType" : 5123,
            "count" : 36,
            "type" : "SCALAR"
        },
        {
            "bufferView" : 16,
            "componentType" : 5126,
            "count" : 9216,
            "max" : [
                8.836684226989746,
                0.2763306796550751,
                8.618246078491211
            ],
            "min" : [
                -0.9481403827667236,
                -0.25000059604644775,
                -1.2097524404525757
            ],
            "type" : "VEC3"
        },
        {
            "bufferView" : 17,
            "componentType" : 5126,
            "count" : 9216,
            "type" : "VEC3"
        },
        {
            "bufferView" : 18,
            "componentType" : 5126,
            "count" : 9216,
            "type" : "VEC2"
        },
        {
            "bufferView" : 19,
            "componentType" : 5123,
            "count" : 13824,
            "type" : "SCALAR"
        }
    ],
    "bufferViews" : [
        {
            "buffer" : 0,
            "byteLength" : 7032,
            "byteOffset" : 0
        },
        {
            "buffer" : 0,
            "byteLength" : 7032,
            "byteOffset" : 7032
        },
        {
            "buffer" : 0,
            "byteLength" : 4688,
            "byteOffset" : 14064
        },
        {
            "buffer" : 0,
            "byteLength" : 2952,
            "byteOffset" : 18752
        },
        {
            "buffer" : 0,
            "byteLength" : 11976,
            "byteOffset" : 21704
        },
        {
            "buffer" : 0,
            "byteLength" : 11976,
            "byteOffset" : 33680
        },
        {
            "buffer" : 0,
            "byteLength" : 7984,
            "byteOffset" : 45656
        },
        {
            "buffer" : 0,
            "byteLength" : 3012,
            "byteOffset" : 53640
        },
        {
            "buffer" : 0,
            "byteLength" : 2928,
            "byteOffset" : 56652
        },
        {
            "buffer" : 0,
            "byteLength" : 2928,
            "byteOffset" : 59580
        },
        {
            "buffer" : 0,
            "byteLength" : 1952,
            "byteOffset" : 62508
        },
        {
            "buffer" : 0,
            "byteLength" : 1416,
            "byteOffset" : 64460
        },
        {
            "buffer" : 0,
            "byteLength" : 288,
            "byteOffset" : 65876
        },
        {
            "buffer" : 0,
            "byteLength" : 288,
            "byteOffset" : 66164
        },
        {
            "buffer" : 0,
            "byteLength" : 192,
            "byteOffset" : 66452
        },
        {
            "buffer" : 0,
            "byteLength" : 72,
            "byteOffset" : 66644
        },
        {
            "buffer" : 0,
            "byteLength" : 110592,
            "byteOffset" : 66716
        },
        {
            "buffer" : 0,
            "byteLength" : 110592,
            "byteOffset" : 177308
        },
        {
            "buffer" : 0,
            "byteLength" : 73728,
            "byteOffset" : 287900
        },
        {
            "buffer" : 0,
            "byteLength" : 27648,
            "byteOffset" : 361628
        }
    ],
    "buffers" : [
        {
            "byteLength" : 389276,
            "uri" : "data:application/octet-stream;base64,"
        }
    ]
}
