{
    "asset" : {
        "generator" : "Khronos glTF Blender I/O v3.2.43",
        "version" : "2.0"
    },
    "scene" : 0,
    "scenes" : [
        {
            "name" : "Scene",
            "nodes" : [
                0,
                1,
                2,
                3,
                4,
                5
            ]
        }
    ],
    "nodes" : [
        {
            "mesh" : 0,
            "name" : "Cube",
            "rotation" : [
                0.013755736872553825,
                -0.010842732153832912,
                -0.7066851854324341,
                0.7073112726211548
            ],
            "scale" : [
                1,
                1,
                0.09833978861570358
            ],
            "translation" : [
                0.024649620056152344,
                0.00028592348098754883,
                -0.2342981994152069
            ]
        },
        {
            "mesh" : 1,
            "name" : "Cube4",
            "scale" : [
                0.20024871826171875,
                0.20024871826171875,
                0.07202070951461792
            ],
            "translation" : [
                0.010785740800201893,
                0.004944562446326017,
                0.07447139918804169
            ]
        },
        {
            "mesh" : 2,
            "name" : "Cube1",
            "rotation" : [
                0.013755736872553825,
                -0.010842732153832912,
                -0.7066851854324341,
                0.7073112726211548
            ],
            "scale" : [
                0.04773359000682831,
                0.14864392578601837,
                0.0421454980969429
            ],
            "translation" : [
                0.8631058931350708,
                -0.30886411666870117,
                -0.13590563833713531
            ]
        },
        {
            "mesh" : 3,
            "name" : "Cube2",
            "rotation" : [
                0.013755736872553825,
                -0.010842732153832912,
                -0.7066851854324341,
                0.7073112726211548
            ],
            "scale" : [
                1.0415500402450562,
                1.0415500402450562,
                0.11333613097667694
            ],
            "translation" : [
                0.01639118790626526,
                -0.0018877983093261719,
                -0.18285205960273743
            ]
        },
        {
            "mesh" : 4,
            "name" : "Cube3",
            "rotation" : [
                0.013755736872553825,
                -0.010842732153832912,
                -0.7066851854324341,
                0.7073112726211548
            ],
            "scale" : [
                0.3809601962566376,
                0.3809601962566376,
                0.06503763794898987
            ],
            "translation" : [
                0.01446521282196045,
                -0.0021167099475860596,
                -0.12751218676567078
            ]
        },
        {
            "mesh" : 5,
            "name" : "Torus",
            "rotation" : [
                0.011985710822045803,
                0.7084546089172363,
                -0.7055419087409973,
                0.012612349353730679
            ],
            "scale" : [
                0.16983263194561005,
                0.16983264684677124,
                0.16983264684677124
            ],
            "translation" : [
                0.6667594909667969,
                0.6232923865318298,
                -0.10511162132024765
            ]
        }
    ],
    "materials" : [
        {
            "doubleSided" : true,
            "name" : "Material2",
            "pbrMetallicRoughness" : {
                "baseColorFactor" : [
                    0.02315288409590721,
                    0.1682691127061844,
                    0.5583404302597046,
                    1
                ],
                "metallicFactor" : 0,
                "roughnessFactor" : 0.5
            }
        },
        {
            "doubleSided" : true,
            "name" : "Material4",
            "pbrMetallicRoughness" : {
                "baseColorFactor" : [
                    0,
                    0,
                    0,
                    1
                ],
                "metallicFactor" : 0,
                "roughnessFactor" : 0.5
            }
        },
        {
            "doubleSided" : true,
            "name" : "Material1",
            "pbrMetallicRoughness" : {
                "baseColorFactor" : [
                    0.10215360671281815,
                    0.10215360671281815,
                    0.10215360671281815,
                    1
                ],
                "metallicFactor" : 0,
                "roughnessFactor" : 0.5
            }
        },
        {
            "doubleSided" : true,
            "name" : "Material3",
            "pbrMetallicRoughness" : {
                "baseColorFactor" : [
                    0.03361615911126137,
                    0.03361615911126137,
                    0.03361615911126137,
                    1
                ],
                "metallicFactor" : 0,
                "roughnessFactor" : 0.5
            }
        }
    ],
    "meshes" : [
        {
            "name" : "Cube6",
            "primitives" : [
                {
                    "attributes" : {
                        "POSITION" : 0,
                        "NORMAL" : 1,
                        "TEXCOORD_0" : 2
                    },
                    "indices" : 3,
                    "material" : 0
                }
            ]
        },
        {
            "name" : "Cube4",
            "primitives" : [
                {
                    "attributes" : {
                        "POSITION" : 4,
                        "NORMAL" : 5,
                        "TEXCOORD_0" : 6
                    },
                    "indices" : 7,
                    "material" : 1
                }
            ]
        },
        {
            "name" : "Cube7",
            "primitives" : [
                {
                    "attributes" : {
                        "POSITION" : 8,
                        "NORMAL" : 9,
                        "TEXCOORD_0" : 10
                    },
                    "indices" : 11,
                    "material" : 2
                }
            ]
        },
        {
            "name" : "Cube8",
            "primitives" : [
                {
                    "attributes" : {
                        "POSITION" : 12,
                        "NORMAL" : 13,
                        "TEXCOORD_0" : 14
                    },
                    "indices" : 15,
                    "material" : 1
                }
            ]
        },
        {
            "name" : "Cube2",
            "primitives" : [
                {
                    "attributes" : {
                        "POSITION" : 16,
                        "NORMAL" : 17,
                        "TEXCOORD_0" : 18
                    },
                    "indices" : 19,
                    "material" : 1
                }
            ]
        },
        {
            "name" : "Torus",
            "primitives" : [
                {
                    "attributes" : {
                        "POSITION" : 20,
                        "NORMAL" : 21,
                        "TEXCOORD_0" : 22
                    },
                    "indices" : 23,
                    "material" : 3
                }
            ]
        }
    ],
    "accessors" : [
        {
            "bufferView" : 0,
            "componentType" : 5126,
            "count" : 574,
            "max" : [
                1.2946237325668335,
                1.2980672121047974,
                3.2088136672973633
            ],
            "min" : [
                -1.3046101331710815,
                -1.2931920289993286,
                1.2088136672973633
            ],
            "type" : "VEC3"
        },
        {
            "bufferView" : 1,
            "componentType" : 5126,
            "count" : 574,
            "type" : "VEC3"
        },
        {
            "bufferView" : 2,
            "componentType" : 5126,
            "count" : 574,
            "type" : "VEC2"
        },
        {
            "bufferView" : 3,
            "componentType" : 5123,
            "count" : 1476,
            "type" : "SCALAR"
        },
        {
            "bufferView" : 4,
            "componentType" : 5126,
            "count" : 24,
            "max" : [
                1.273909568786621,
                1.227370023727417,
                1.21353280544281
            ],
            "min" : [
                -1.2391235828399658,
                -1.2519718408584595,
                -1.5057892799377441
            ],
            "type" : "VEC3"
        },
        {
            "bufferView" : 5,
            "componentType" : 5126,
            "count" : 24,
            "type" : "VEC3"
        },
        {
            "bufferView" : 6,
            "componentType" : 5126,
            "count" : 24,
            "type" : "VEC2"
        },
        {
            "bufferView" : 7,
            "componentType" : 5123,
            "count" : 36,
            "type" : "SCALAR"
        },
        {
            "bufferView" : 8,
            "componentType" : 5126,
            "count" : 842,
            "max" : [
                14.38179874420166,
                1.146498680114746,
                6.821953773498535
            ],
            "min" : [
                -27.981983184814453,
                -12.342238426208496,
                3.810406446456909
            ],
            "type" : "VEC3"
        },
        {
            "bufferView" : 9,
            "componentType" : 5126,
            "count" : 842,
            "type" : "VEC3"
        },
        {
            "bufferView" : 10,
            "componentType" : 5126,
            "count" : 842,
            "type" : "VEC2"
        },
        {
            "bufferView" : 11,
            "componentType" : 5123,
            "count" : 1272,
            "type" : "SCALAR"
        },
        {
            "bufferView" : 12,
            "componentType" : 5126,
            "count" : 290,
            "max" : [
                0.9952060580253601,
                1.0072623491287231,
                2.9165492057800293
            ],
            "min" : [
                -1.0047940015792847,
                -0.9927375912666321,
                0.9165490865707397
            ],
            "type" : "VEC3"
        },
        {
            "bufferView" : 13,
            "componentType" : 5126,
            "count" : 290,
            "type" : "VEC3"
        },
        {
            "bufferView" : 14,
            "componentType" : 5126,
            "count" : 290,
            "type" : "VEC2"
        },
        {
            "bufferView" : 15,
            "componentType" : 5123,
            "count" : 708,
            "type" : "SCALAR"
        },
        {
            "bufferView" : 16,
            "componentType" : 5126,
            "count" : 233,
            "max" : [
                0.9868932366371155,
                1.0198554992675781,
                4.339824199676514
            ],
            "min" : [
                -1.0131068229675293,
                -0.9801445603370667,
                2.3398241996765137
            ],
            "type" : "VEC3"
        },
        {
            "bufferView" : 17,
            "componentType" : 5126,
            "count" : 233,
            "type" : "VEC3"
        },
        {
            "bufferView" : 18,
            "componentType" : 5126,
            "count" : 233,
            "type" : "VEC2"
        },
        {
            "bufferView" : 19,
            "componentType" : 5123,
            "count" : 744,
            "type" : "SCALAR"
        },
        {
            "bufferView" : 20,
            "componentType" : 5126,
            "count" : 9216,
            "max" : [
                8.792145729064941,
                -0.9405184984207153,
                4.867186546325684
            ],
            "min" : [
                -1.0231050252914429,
                -1.565100908279419,
                -1.139517068862915
            ],
            "type" : "VEC3"
        },
        {
            "bufferView" : 21,
            "componentType" : 5126,
            "count" : 9216,
            "type" : "VEC3"
        },
        {
            "bufferView" : 22,
            "componentType" : 5126,
            "count" : 9216,
            "type" : "VEC2"
        },
        {
            "bufferView" : 23,
            "componentType" : 5123,
            "count" : 13824,
            "type" : "SCALAR"
        }
    ],
    "bufferViews" : [
        {
            "buffer" : 0,
            "byteLength" : 6888,
            "byteOffset" : 0
        },
        {
            "buffer" : 0,
            "byteLength" : 6888,
            "byteOffset" : 6888
        },
        {
            "buffer" : 0,
            "byteLength" : 4592,
            "byteOffset" : 13776
        },
        {
            "buffer" : 0,
            "byteLength" : 2952,
            "byteOffset" : 18368
        },
        {
            "buffer" : 0,
            "byteLength" : 288,
            "byteOffset" : 21320
        },
        {
            "buffer" : 0,
            "byteLength" : 288,
            "byteOffset" : 21608
        },
        {
            "buffer" : 0,
            "byteLength" : 192,
            "byteOffset" : 21896
        },
        {
            "buffer" : 0,
            "byteLength" : 72,
            "byteOffset" : 22088
        },
        {
            "buffer" : 0,
            "byteLength" : 10104,
            "byteOffset" : 22160
        },
        {
            "buffer" : 0,
            "byteLength" : 10104,
            "byteOffset" : 32264
        },
        {
            "buffer" : 0,
            "byteLength" : 6736,
            "byteOffset" : 42368
        },
        {
            "buffer" : 0,
            "byteLength" : 2544,
            "byteOffset" : 49104
        },
        {
            "buffer" : 0,
            "byteLength" : 3480,
            "byteOffset" : 51648
        },
        {
            "buffer" : 0,
            "byteLength" : 3480,
            "byteOffset" : 55128
        },
        {
            "buffer" : 0,
            "byteLength" : 2320,
            "byteOffset" : 58608
        },
        {
            "buffer" : 0,
            "byteLength" : 1416,
            "byteOffset" : 60928
        },
        {
            "buffer" : 0,
            "byteLength" : 2796,
            "byteOffset" : 62344
        },
        {
            "buffer" : 0,
            "byteLength" : 2796,
            "byteOffset" : 65140
        },
        {
            "buffer" : 0,
            "byteLength" : 1864,
            "byteOffset" : 67936
        },
        {
            "buffer" : 0,
            "byteLength" : 1488,
            "byteOffset" : 69800
        },
        {
            "buffer" : 0,
            "byteLength" : 110592,
            "byteOffset" : 71288
        },
        {
            "buffer" : 0,
            "byteLength" : 110592,
            "byteOffset" : 181880
        },
        {
            "buffer" : 0,
            "byteLength" : 73728,
            "byteOffset" : 292472
        },
        {
            "buffer" : 0,
            "byteLength" : 27648,
            "byteOffset" : 366200
        }
    ],
    "buffers" : [
        {
            "byteLength" : 393848,
            "uri" : "data:application/octet-stream;base64,"
        }
    ]
}
