{
    "asset" : {
        "generator" : "Khronos glTF Blender I/O v3.2.43",
        "version" : "2.0"
    },
    "scene" : 0,
    "scenes" : [
        {
            "name" : "Scene",
            "nodes" : [
                0,
                1,
                2,
                3,
                4
            ]
        }
    ],
    "nodes" : [
        {
            "mesh" : 0,
            "name" : "Cube",
            "rotation" : [
                0,
                0,
                1,
                1.6292068494294654e-07
            ],
            "scale" : [
                1,
                1,
                0.09833978861570358
            ],
            "translation" : [
                -0.0027024969458580017,
                -0.006449282169342041,
                -0.22382459044456482
            ]
        },
        {
            "mesh" : 1,
            "name" : "Cube1",
            "rotation" : [
                0,
                0,
                1,
                1.6292068494294654e-07
            ],
            "scale" : [
                0.04773359000682831,
                0.14864392578601837,
                0.0421454980969429
            ],
            "translation" : [
                -0.31224873661994934,
                -0.8475686311721802,
                -0.15337595343589783
            ]
        },
        {
            "mesh" : 2,
            "name" : "Cube2",
            "rotation" : [
                0,
                0,
                1,
                1.6292068494294654e-07
            ],
            "scale" : [
                1.0415500402450562,
                1.0415500402450562,
                0.11333613097667694
            ],
            "translation" : [
                -0.0046572014689445496,
                1.6510486602783203e-05,
                -0.1721138060092926
            ]
        },
        {
            "mesh" : 3,
            "name" : "Cube3",
            "rotation" : [
                0,
                0,
                1,
                1.6292067073209182e-07
            ],
            "scale" : [
                0.38096022605895996,
                0.38096022605895996,
                0.06503763794898987
            ],
            "translation" : [
                -0.0046572014689445496,
                1.6510486602783203e-05,
                -0.11673993617296219
            ]
        },
        {
            "mesh" : 4,
            "name" : "Torus",
            "rotation" : [
                -0.5000001788139343,
                -0.4999999403953552,
                0.49999985098838806,
                0.5000000596046448
            ],
            "scale" : [
                0.16983264684677124,
                0.16983264684677124,
                0.16983264684677124
            ],
            "translation" : [
                0.6202137470245361,
                -0.6531710624694824,
                -0.1196252703666687
            ]
        }
    ],
    "materials" : [
        {
            "doubleSided" : true,
            "name" : "Material2",
            "pbrMetallicRoughness" : {
                "baseColorFactor" : [
                    0.02315288409590721,
                    0.1682691127061844,
                    0.5583404302597046,
                    1
                ],
                "metallicFactor" : 0,
                "roughnessFactor" : 0.5
            }
        },
        {
            "doubleSided" : true,
            "name" : "Material1",
            "pbrMetallicRoughness" : {
                "baseColorFactor" : [
                    0.10215360671281815,
                    0.10215360671281815,
                    0.10215360671281815,
                    1
                ],
                "metallicFactor" : 0,
                "roughnessFactor" : 0.5
            }
        },
        {
            "doubleSided" : true,
            "name" : "Material4",
            "pbrMetallicRoughness" : {
                "baseColorFactor" : [
                    0,
                    0,
                    0,
                    1
                ],
                "metallicFactor" : 0,
                "roughnessFactor" : 0.5
            }
        },
        {
            "doubleSided" : true,
            "name" : "Material3",
            "pbrMetallicRoughness" : {
                "baseColorFactor" : [
                    0.03361615911126137,
                    0.03361615911126137,
                    0.03361615911126137,
                    1
                ],
                "metallicFactor" : 0,
                "roughnessFactor" : 0.5
            }
        }
    ],
    "meshes" : [
        {
            "name" : "Cube6",
            "primitives" : [
                {
                    "attributes" : {
                        "POSITION" : 0,
                        "NORMAL" : 1,
                        "TEXCOORD_0" : 2
                    },
                    "indices" : 3,
                    "material" : 0
                }
            ]
        },
        {
            "name" : "Cube7",
            "primitives" : [
                {
                    "attributes" : {
                        "POSITION" : 4,
                        "NORMAL" : 5,
                        "TEXCOORD_0" : 6
                    },
                    "indices" : 7,
                    "material" : 1
                }
            ]
        },
        {
            "name" : "Cube8",
            "primitives" : [
                {
                    "attributes" : {
                        "POSITION" : 8,
                        "NORMAL" : 9,
                        "TEXCOORD_0" : 10
                    },
                    "indices" : 11,
                    "material" : 2
                }
            ]
        },
        {
            "name" : "Cube2",
            "primitives" : [
                {
                    "attributes" : {
                        "POSITION" : 12,
                        "NORMAL" : 13,
                        "TEXCOORD_0" : 14
                    },
                    "indices" : 15,
                    "material" : 2
                }
            ]
        },
        {
            "name" : "Torus",
            "primitives" : [
                {
                    "attributes" : {
                        "POSITION" : 16,
                        "NORMAL" : 17,
                        "TEXCOORD_0" : 18
                    },
                    "indices" : 19,
                    "material" : 3
                }
            ]
        }
    ],
    "accessors" : [
        {
            "bufferView" : 0,
            "componentType" : 5126,
            "count" : 586,
            "max" : [
                1.2996169328689575,
                1.2905030250549316,
                1
            ],
            "min" : [
                -1.2996169328689575,
                -1.3007562160491943,
                -1
            ],
            "type" : "VEC3"
        },
        {
            "bufferView" : 1,
            "componentType" : 5126,
            "count" : 586,
            "type" : "VEC3"
        },
        {
            "bufferView" : 2,
            "componentType" : 5126,
            "count" : 586,
            "type" : "VEC2"
        },
        {
            "bufferView" : 3,
            "componentType" : 5123,
            "count" : 1476,
            "type" : "SCALAR"
        },
        {
            "bufferView" : 4,
            "componentType" : 5126,
            "count" : 1054,
            "max" : [
                14.486403465270996,
                1.0956109762191772,
                1.2209867238998413
            ],
            "min" : [
                -27.41791343688965,
                -12.393126487731934,
                -1.3023312091827393
            ],
            "type" : "VEC3"
        },
        {
            "bufferView" : 5,
            "componentType" : 5126,
            "count" : 1054,
            "type" : "VEC3"
        },
        {
            "bufferView" : 6,
            "componentType" : 5126,
            "count" : 1054,
            "type" : "VEC2"
        },
        {
            "bufferView" : 7,
            "componentType" : 5123,
            "count" : 1590,
            "type" : "SCALAR"
        },
        {
            "bufferView" : 8,
            "componentType" : 5126,
            "count" : 244,
            "max" : [
                1,
                1,
                1
            ],
            "min" : [
                -1,
                -1,
                -1
            ],
            "type" : "VEC3"
        },
        {
            "bufferView" : 9,
            "componentType" : 5126,
            "count" : 244,
            "type" : "VEC3"
        },
        {
            "bufferView" : 10,
            "componentType" : 5126,
            "count" : 244,
            "type" : "VEC2"
        },
        {
            "bufferView" : 11,
            "componentType" : 5123,
            "count" : 708,
            "type" : "SCALAR"
        },
        {
            "bufferView" : 12,
            "componentType" : 5126,
            "count" : 24,
            "max" : [
                1,
                1,
                1
            ],
            "min" : [
                -1,
                -1,
                -1
            ],
            "type" : "VEC3"
        },
        {
            "bufferView" : 13,
            "componentType" : 5126,
            "count" : 24,
            "type" : "VEC3"
        },
        {
            "bufferView" : 14,
            "componentType" : 5126,
            "count" : 24,
            "type" : "VEC2"
        },
        {
            "bufferView" : 15,
            "componentType" : 5123,
            "count" : 36,
            "type" : "SCALAR"
        },
        {
            "bufferView" : 16,
            "componentType" : 5126,
            "count" : 11520,
            "max" : [
                8.836684226989746,
                0.2499999850988388,
                8.454325675964355
            ],
            "min" : [
                -0.9481403827667236,
                -0.2500011622905731,
                -1.2097530364990234
            ],
            "type" : "VEC3"
        },
        {
            "bufferView" : 17,
            "componentType" : 5126,
            "count" : 11520,
            "type" : "VEC3"
        },
        {
            "bufferView" : 18,
            "componentType" : 5126,
            "count" : 11520,
            "type" : "VEC2"
        },
        {
            "bufferView" : 19,
            "componentType" : 5123,
            "count" : 17280,
            "type" : "SCALAR"
        }
    ],
    "bufferViews" : [
        {
            "buffer" : 0,
            "byteLength" : 7032,
            "byteOffset" : 0
        },
        {
            "buffer" : 0,
            "byteLength" : 7032,
            "byteOffset" : 7032
        },
        {
            "buffer" : 0,
            "byteLength" : 4688,
            "byteOffset" : 14064
        },
        {
            "buffer" : 0,
            "byteLength" : 2952,
            "byteOffset" : 18752
        },
        {
            "buffer" : 0,
            "byteLength" : 12648,
            "byteOffset" : 21704
        },
        {
            "buffer" : 0,
            "byteLength" : 12648,
            "byteOffset" : 34352
        },
        {
            "buffer" : 0,
            "byteLength" : 8432,
            "byteOffset" : 47000
        },
        {
            "buffer" : 0,
            "byteLength" : 3180,
            "byteOffset" : 55432
        },
        {
            "buffer" : 0,
            "byteLength" : 2928,
            "byteOffset" : 58612
        },
        {
            "buffer" : 0,
            "byteLength" : 2928,
            "byteOffset" : 61540
        },
        {
            "buffer" : 0,
            "byteLength" : 1952,
            "byteOffset" : 64468
        },
        {
            "buffer" : 0,
            "byteLength" : 1416,
            "byteOffset" : 66420
        },
        {
            "buffer" : 0,
            "byteLength" : 288,
            "byteOffset" : 67836
        },
        {
            "buffer" : 0,
            "byteLength" : 288,
            "byteOffset" : 68124
        },
        {
            "buffer" : 0,
            "byteLength" : 192,
            "byteOffset" : 68412
        },
        {
            "buffer" : 0,
            "byteLength" : 72,
            "byteOffset" : 68604
        },
        {
            "buffer" : 0,
            "byteLength" : 138240,
            "byteOffset" : 68676
        },
        {
            "buffer" : 0,
            "byteLength" : 138240,
            "byteOffset" : 206916
        },
        {
            "buffer" : 0,
            "byteLength" : 92160,
            "byteOffset" : 345156
        },
        {
            "buffer" : 0,
            "byteLength" : 34560,
            "byteOffset" : 437316
        }
    ],
    "buffers" : [
        {
            "byteLength" : 471876,
            "uri" : "data:application/octet-stream;base64,"
        }
    ]
}
