{
    "asset" : {
        "generator" : "Khronos glTF Blender I/O v3.2.43",
        "version" : "2.0"
    },
    "scene" : 0,
    "scenes" : [
        {
            "name" : "Scene",
            "nodes" : [
                0,
                1,
                2,
                3
            ]
        }
    ],
    "nodes" : [
        {
            "mesh" : 0,
            "name" : "Cube",
            "rotation" : [
                0,
                0,
                1,
                1.6292068494294654e-07
            ],
            "scale" : [
                1,
                1,
                0.09833978861570358
            ],
            "translation" : [
                -0.15766245126724243,
                0.7471534013748169,
                -0.22382467985153198
            ]
        },
        {
            "mesh" : 1,
            "name" : "Cube1",
            "rotation" : [
                0,
                0,
                1,
                1.6292068494294654e-07
            ],
            "scale" : [
                0.04773359000682831,
                0.14864392578601837,
                0.0421454980969429
            ],
            "translation" : [
                -0.4672086238861084,
                -0.09396594762802124,
                -0.10896170884370804
            ]
        },
        {
            "mesh" : 2,
            "name" : "Cube2",
            "rotation" : [
                0,
                0,
                1,
                1.6292068494294654e-07
            ],
            "scale" : [
                1.0415500402450562,
                1.0415500402450562,
                0.11333613097667694
            ],
            "translation" : [
                -0.15961717069149017,
                0.7536191940307617,
                -0.17211388051509857
            ]
        },
        {
            "mesh" : 3,
            "name" : "Torus",
            "rotation" : [
                -0.5,
                -0.5000000596046448,
                0.5,
                0.5
            ],
            "scale" : [
                0.16983264684677124,
                0.16983264684677124,
                0.16983264684677124
            ],
            "translation" : [
                0.46525394916534424,
                0.10043162107467651,
                -0.08729936182498932
            ]
        }
    ],
    "materials" : [
        {
            "doubleSided" : true,
            "name" : "Material2",
            "pbrMetallicRoughness" : {
                "baseColorFactor" : [
                    0.5583402514457703,
                    0.07618504017591476,
                    0.545724630355835,
                    1
                ],
                "metallicFactor" : 0,
                "roughnessFactor" : 0.5
            }
        },
        {
            "doubleSided" : true,
            "name" : "Material1",
            "pbrMetallicRoughness" : {
                "baseColorFactor" : [
                    0.10215360671281815,
                    0.10215360671281815,
                    0.10215360671281815,
                    1
                ],
                "metallicFactor" : 0,
                "roughnessFactor" : 0.5
            }
        },
        {
            "doubleSided" : true,
            "name" : "Material4",
            "pbrMetallicRoughness" : {
                "baseColorFactor" : [
                    0,
                    0,
                    0,
                    1
                ],
                "metallicFactor" : 0,
                "roughnessFactor" : 0.5
            }
        },
        {
            "doubleSided" : true,
            "name" : "Material3",
            "pbrMetallicRoughness" : {
                "baseColorFactor" : [
                    0.03361615911126137,
                    0.03361615911126137,
                    0.03361615911126137,
                    1
                ],
                "metallicFactor" : 0,
                "roughnessFactor" : 0.5
            }
        }
    ],
    "meshes" : [
        {
            "name" : "Cube6",
            "primitives" : [
                {
                    "attributes" : {
                        "POSITION" : 0,
                        "NORMAL" : 1,
                        "TEXCOORD_0" : 2
                    },
                    "indices" : 3,
                    "material" : 0
                }
            ]
        },
        {
            "name" : "Cube7",
            "primitives" : [
                {
                    "attributes" : {
                        "POSITION" : 4,
                        "NORMAL" : 5,
                        "TEXCOORD_0" : 6
                    },
                    "indices" : 7,
                    "material" : 1
                }
            ]
        },
        {
            "name" : "Cube8",
            "primitives" : [
                {
                    "attributes" : {
                        "POSITION" : 8,
                        "NORMAL" : 9,
                        "TEXCOORD_0" : 10
                    },
                    "indices" : 11,
                    "material" : 2
                }
            ]
        },
        {
            "name" : "Torus",
            "primitives" : [
                {
                    "attributes" : {
                        "POSITION" : 12,
                        "NORMAL" : 13,
                        "TEXCOORD_0" : 14
                    },
                    "indices" : 15,
                    "material" : 3
                }
            ]
        }
    ],
    "accessors" : [
        {
            "bufferView" : 0,
            "componentType" : 5126,
            "count" : 586,
            "max" : [
                1.2996169328689575,
                1.2905030250549316,
                1
            ],
            "min" : [
                -1.2996169328689575,
                -1.3007562160491943,
                -1
            ],
            "type" : "VEC3"
        },
        {
            "bufferView" : 1,
            "componentType" : 5126,
            "count" : 586,
            "type" : "VEC3"
        },
        {
            "bufferView" : 2,
            "componentType" : 5126,
            "count" : 586,
            "type" : "VEC2"
        },
        {
            "bufferView" : 3,
            "componentType" : 5123,
            "count" : 1476,
            "type" : "SCALAR"
        },
        {
            "bufferView" : 4,
            "componentType" : 5126,
            "count" : 972,
            "max" : [
                14.58839225769043,
                1.0956108570098877,
                1.5003020763397217
            ],
            "min" : [
                -27.41791343688965,
                -12.68641185760498,
                -1.087235450744629
            ],
            "type" : "VEC3"
        },
        {
            "bufferView" : 5,
            "componentType" : 5126,
            "count" : 972,
            "type" : "VEC3"
        },
        {
            "bufferView" : 6,
            "componentType" : 5126,
            "count" : 972,
            "type" : "VEC2"
        },
        {
            "bufferView" : 7,
            "componentType" : 5123,
            "count" : 1458,
            "type" : "SCALAR"
        },
        {
            "bufferView" : 8,
            "componentType" : 5126,
            "count" : 244,
            "max" : [
                1,
                1,
                1
            ],
            "min" : [
                -1,
                -1,
                -1
            ],
            "type" : "VEC3"
        },
        {
            "bufferView" : 9,
            "componentType" : 5126,
            "count" : 244,
            "type" : "VEC3"
        },
        {
            "bufferView" : 10,
            "componentType" : 5126,
            "count" : 244,
            "type" : "VEC2"
        },
        {
            "bufferView" : 11,
            "componentType" : 5123,
            "count" : 708,
            "type" : "SCALAR"
        },
        {
            "bufferView" : 12,
            "componentType" : 5126,
            "count" : 9216,
            "max" : [
                8.304648399353027,
                0.2499999850988388,
                7.622591018676758
            ],
            "min" : [
                -0.6261613368988037,
                -0.2500010132789612,
                -1.2097530364990234
            ],
            "type" : "VEC3"
        },
        {
            "bufferView" : 13,
            "componentType" : 5126,
            "count" : 9216,
            "type" : "VEC3"
        },
        {
            "bufferView" : 14,
            "componentType" : 5126,
            "count" : 9216,
            "type" : "VEC2"
        },
        {
            "bufferView" : 15,
            "componentType" : 5123,
            "count" : 13824,
            "type" : "SCALAR"
        }
    ],
    "bufferViews" : [
        {
            "buffer" : 0,
            "byteLength" : 7032,
            "byteOffset" : 0
        },
        {
            "buffer" : 0,
            "byteLength" : 7032,
            "byteOffset" : 7032
        },
        {
            "buffer" : 0,
            "byteLength" : 4688,
            "byteOffset" : 14064
        },
        {
            "buffer" : 0,
            "byteLength" : 2952,
            "byteOffset" : 18752
        },
        {
            "buffer" : 0,
            "byteLength" : 11664,
            "byteOffset" : 21704
        },
        {
            "buffer" : 0,
            "byteLength" : 11664,
            "byteOffset" : 33368
        },
        {
            "buffer" : 0,
            "byteLength" : 7776,
            "byteOffset" : 45032
        },
        {
            "buffer" : 0,
            "byteLength" : 2916,
            "byteOffset" : 52808
        },
        {
            "buffer" : 0,
            "byteLength" : 2928,
            "byteOffset" : 55724
        },
        {
            "buffer" : 0,
            "byteLength" : 2928,
            "byteOffset" : 58652
        },
        {
            "buffer" : 0,
            "byteLength" : 1952,
            "byteOffset" : 61580
        },
        {
            "buffer" : 0,
            "byteLength" : 1416,
            "byteOffset" : 63532
        },
        {
            "buffer" : 0,
            "byteLength" : 110592,
            "byteOffset" : 64948
        },
        {
            "buffer" : 0,
            "byteLength" : 110592,
            "byteOffset" : 175540
        },
        {
            "buffer" : 0,
            "byteLength" : 73728,
            "byteOffset" : 286132
        },
        {
            "buffer" : 0,
            "byteLength" : 27648,
            "byteOffset" : 359860
        }
    ],
    "buffers" : [
        {
            "byteLength" : 387508,
            "uri" : "data:application/octet-stream;base64,"
        }
    ]
}
