{
    "asset" : {
        "generator" : "Khronos glTF Blender I/O v3.2.43",
        "version" : "2.0"
    },
    "scene" : 0,
    "scenes" : [
        {
            "name" : "Scene",
            "nodes" : [
                0,
                1,
                2,
                3,
                4
            ]
        }
    ],
    "nodes" : [
        {
            "mesh" : 0,
            "name" : "Cube",
            "scale" : [
                1,
                1,
                0.09833978861570358
            ],
            "translation" : [
                -0.001954713137820363,
                0.006465786136686802,
                -0.22382467985153198
            ]
        },
        {
            "mesh" : 1,
            "name" : "Cube1",
            "scale" : [
                0.04773359000682831,
                0.14864392578601837,
                0.0421454980969429
            ],
            "translation" : [
                0.30759143829345703,
                0.847585141658783,
                -0.1533758044242859
            ]
        },
        {
            "mesh" : 2,
            "name" : "Cube2",
            "scale" : [
                1.0415500402450562,
                1.0415500402450562,
                0.11333613097667694
            ],
            "translation" : [
                0,
                0,
                -0.17211388051509857
            ]
        },
        {
            "mesh" : 3,
            "name" : "Torus",
            "rotation" : [
                -0.5000001192092896,
                0.5,
                -0.49999991059303284,
                0.5
            ],
            "scale" : [
                0.16983264684677124,
                0.16983264684677124,
                0.16983264684677124
            ],
            "translation" : [
                -0.6248711347579956,
                0.6531875133514404,
                -0.11962518095970154
            ]
        },
        {
            "mesh" : 4,
            "name" : "Cube3",
            "scale" : [
                0.38096022605895996,
                0.38096022605895996,
                0.06503763794898987
            ],
            "translation" : [
                0,
                0,
                -0.11674001812934875
            ]
        }
    ],
    "materials" : [
        {
            "doubleSided" : true,
            "name" : "Material2",
            "pbrMetallicRoughness" : {
                "baseColorFactor" : [
                    0.5583405494689941,
                    0.0761852115392685,
                    0.09305896610021591,
                    1
                ],
                "metallicFactor" : 0,
                "roughnessFactor" : 0.5
            }
        },
        {
            "doubleSided" : true,
            "name" : "Material1",
            "pbrMetallicRoughness" : {
                "baseColorFactor" : [
                    0.10215360671281815,
                    0.10215360671281815,
                    0.10215360671281815,
                    1
                ],
                "metallicFactor" : 0,
                "roughnessFactor" : 0.5
            }
        },
        {
            "doubleSided" : true,
            "name" : "Material4",
            "pbrMetallicRoughness" : {
                "baseColorFactor" : [
                    0,
                    0,
                    0,
                    1
                ],
                "metallicFactor" : 0,
                "roughnessFactor" : 0.5
            }
        },
        {
            "doubleSided" : true,
            "name" : "Material3",
            "pbrMetallicRoughness" : {
                "baseColorFactor" : [
                    0.03361615911126137,
                    0.03361615911126137,
                    0.03361615911126137,
                    1
                ],
                "metallicFactor" : 0,
                "roughnessFactor" : 0.5
            }
        }
    ],
    "meshes" : [
        {
            "name" : "Cube6",
            "primitives" : [
                {
                    "attributes" : {
                        "POSITION" : 0,
                        "NORMAL" : 1,
                        "TEXCOORD_0" : 2
                    },
                    "indices" : 3,
                    "material" : 0
                }
            ]
        },
        {
            "name" : "Cube7",
            "primitives" : [
                {
                    "attributes" : {
                        "POSITION" : 4,
                        "NORMAL" : 5,
                        "TEXCOORD_0" : 6
                    },
                    "indices" : 7,
                    "material" : 1
                }
            ]
        },
        {
            "name" : "Cube8",
            "primitives" : [
                {
                    "attributes" : {
                        "POSITION" : 8,
                        "NORMAL" : 9,
                        "TEXCOORD_0" : 10
                    },
                    "indices" : 11,
                    "material" : 2
                }
            ]
        },
        {
            "name" : "Torus",
            "primitives" : [
                {
                    "attributes" : {
                        "POSITION" : 12,
                        "NORMAL" : 13,
                        "TEXCOORD_0" : 14
                    },
                    "indices" : 15,
                    "material" : 3
                }
            ]
        },
        {
            "name" : "Cube2",
            "primitives" : [
                {
                    "attributes" : {
                        "POSITION" : 16,
                        "NORMAL" : 17,
                        "TEXCOORD_0" : 18
                    },
                    "indices" : 19,
                    "material" : 2
                }
            ]
        }
    ],
    "accessors" : [
        {
            "bufferView" : 0,
            "componentType" : 5126,
            "count" : 586,
            "max" : [
                1.2996169328689575,
                1.2905030250549316,
                1
            ],
            "min" : [
                -1.2996169328689575,
                -1.3007562160491943,
                -1
            ],
            "type" : "VEC3"
        },
        {
            "bufferView" : 1,
            "componentType" : 5126,
            "count" : 586,
            "type" : "VEC3"
        },
        {
            "bufferView" : 2,
            "componentType" : 5126,
            "count" : 586,
            "type" : "VEC2"
        },
        {
            "bufferView" : 3,
            "componentType" : 5123,
            "count" : 1476,
            "type" : "SCALAR"
        },
        {
            "bufferView" : 4,
            "componentType" : 5126,
            "count" : 1170,
            "max" : [
                14.486403465270996,
                1.0956109762191772,
                1.2209867238998413
            ],
            "min" : [
                -27.41791343688965,
                -12.393126487731934,
                -1.3396059274673462
            ],
            "type" : "VEC3"
        },
        {
            "bufferView" : 5,
            "componentType" : 5126,
            "count" : 1170,
            "type" : "VEC3"
        },
        {
            "bufferView" : 6,
            "componentType" : 5126,
            "count" : 1170,
            "type" : "VEC2"
        },
        {
            "bufferView" : 7,
            "componentType" : 5123,
            "count" : 1764,
            "type" : "SCALAR"
        },
        {
            "bufferView" : 8,
            "componentType" : 5126,
            "count" : 244,
            "max" : [
                1,
                1,
                1
            ],
            "min" : [
                -1,
                -1,
                -1
            ],
            "type" : "VEC3"
        },
        {
            "bufferView" : 9,
            "componentType" : 5126,
            "count" : 244,
            "type" : "VEC3"
        },
        {
            "bufferView" : 10,
            "componentType" : 5126,
            "count" : 244,
            "type" : "VEC2"
        },
        {
            "bufferView" : 11,
            "componentType" : 5123,
            "count" : 708,
            "type" : "SCALAR"
        },
        {
            "bufferView" : 12,
            "componentType" : 5126,
            "count" : 6912,
            "max" : [
                8.836682319641113,
                0.2499999850988388,
                8.069440841674805
            ],
            "min" : [
                -0.6261613368988037,
                -0.25000110268592834,
                -1.2097530364990234
            ],
            "type" : "VEC3"
        },
        {
            "bufferView" : 13,
            "componentType" : 5126,
            "count" : 6912,
            "type" : "VEC3"
        },
        {
            "bufferView" : 14,
            "componentType" : 5126,
            "count" : 6912,
            "type" : "VEC2"
        },
        {
            "bufferView" : 15,
            "componentType" : 5123,
            "count" : 10368,
            "type" : "SCALAR"
        },
        {
            "bufferView" : 16,
            "componentType" : 5126,
            "count" : 24,
            "max" : [
                1,
                1,
                1
            ],
            "min" : [
                -1,
                -1,
                -1
            ],
            "type" : "VEC3"
        },
        {
            "bufferView" : 17,
            "componentType" : 5126,
            "count" : 24,
            "type" : "VEC3"
        },
        {
            "bufferView" : 18,
            "componentType" : 5126,
            "count" : 24,
            "type" : "VEC2"
        },
        {
            "bufferView" : 19,
            "componentType" : 5123,
            "count" : 36,
            "type" : "SCALAR"
        }
    ],
    "bufferViews" : [
        {
            "buffer" : 0,
            "byteLength" : 7032,
            "byteOffset" : 0
        },
        {
            "buffer" : 0,
            "byteLength" : 7032,
            "byteOffset" : 7032
        },
        {
            "buffer" : 0,
            "byteLength" : 4688,
            "byteOffset" : 14064
        },
        {
            "buffer" : 0,
            "byteLength" : 2952,
            "byteOffset" : 18752
        },
        {
            "buffer" : 0,
            "byteLength" : 14040,
            "byteOffset" : 21704
        },
        {
            "buffer" : 0,
            "byteLength" : 14040,
            "byteOffset" : 35744
        },
        {
            "buffer" : 0,
            "byteLength" : 9360,
            "byteOffset" : 49784
        },
        {
            "buffer" : 0,
            "byteLength" : 3528,
            "byteOffset" : 59144
        },
        {
            "buffer" : 0,
            "byteLength" : 2928,
            "byteOffset" : 62672
        },
        {
            "buffer" : 0,
            "byteLength" : 2928,
            "byteOffset" : 65600
        },
        {
            "buffer" : 0,
            "byteLength" : 1952,
            "byteOffset" : 68528
        },
        {
            "buffer" : 0,
            "byteLength" : 1416,
            "byteOffset" : 70480
        },
        {
            "buffer" : 0,
            "byteLength" : 82944,
            "byteOffset" : 71896
        },
        {
            "buffer" : 0,
            "byteLength" : 82944,
            "byteOffset" : 154840
        },
        {
            "buffer" : 0,
            "byteLength" : 55296,
            "byteOffset" : 237784
        },
        {
            "buffer" : 0,
            "byteLength" : 20736,
            "byteOffset" : 293080
        },
        {
            "buffer" : 0,
            "byteLength" : 288,
            "byteOffset" : 313816
        },
        {
            "buffer" : 0,
            "byteLength" : 288,
            "byteOffset" : 314104
        },
        {
            "buffer" : 0,
            "byteLength" : 192,
            "byteOffset" : 314392
        },
        {
            "buffer" : 0,
            "byteLength" : 72,
            "byteOffset" : 314584
        }
    ],
    "buffers" : [
        {
            "byteLength" : 314656,
            "uri" : "data:application/octet-stream;base64,"
        }
    ]
}
