{
    "asset" : {
        "generator" : "Khronos glTF Blender I/O v3.2.40",
        "version" : "2.0"
    },
    "scene" : 0,
    "scenes" : [
        {
            "name" : "Scene",
            "nodes" : [
                0
            ]
        }
    ],
    "nodes" : [
        {
            "mesh" : 0,
            "name" : "Gear"
        }
    ],
    "materials" : [
        {
            "doubleSided" : true,
            "name" : "Material",
            "pbrMetallicRoughness" : {
                "baseColorFactor" : [
                    0.15762807428836823,
                    0.0898618996143341,
                    0.058073800057172775,
                    1
                ],
                "metallicFactor" : 0,
                "roughnessFactor" : 0.5
            }
        }
    ],
    "meshes" : [
        {
            "name" : "Gear",
            "primitives" : [
                {
                    "attributes" : {
                        "POSITION" : 0,
                        "NORMAL" : 1,
                        "TEXCOORD_0" : 2
                    },
                    "indices" : 3,
                    "material" : 0
                }
            ]
        }
    ],
    "accessors" : [
        {
            "bufferView" : 0,
            "componentType" : 5126,
            "count" : 3993,
            "max" : [
                1.2898510694503784,
                0.12999999523162842,
                1.2988336086273193
            ],
            "min" : [
                -1.2999999523162842,
                -0.14143265783786774,
                -1.2988336086273193
            ],
            "type" : "VEC3"
        },
        {
            "bufferView" : 1,
            "componentType" : 5126,
            "count" : 3993,
            "type" : "VEC3"
        },
        {
            "bufferView" : 2,
            "componentType" : 5126,
            "count" : 3993,
            "type" : "VEC2"
        },
        {
            "bufferView" : 3,
            "componentType" : 5123,
            "count" : 6192,
            "type" : "SCALAR"
        }
    ],
    "bufferViews" : [
        {
            "buffer" : 0,
            "byteLength" : 47916,
            "byteOffset" : 0
        },
        {
            "buffer" : 0,
            "byteLength" : 47916,
            "byteOffset" : 47916
        },
        {
            "buffer" : 0,
            "byteLength" : 31944,
            "byteOffset" : 95832
        },
        {
            "buffer" : 0,
            "byteLength" : 12384,
            "byteOffset" : 127776
        }
    ],
    "buffers" : [
        {
            "byteLength" : 140160,
            "uri" : "data:application/octet-stream;base64,"
        }
    ]
}
