{
    "asset" : {
        "generator" : "Khronos glTF Blender I/O v3.2.40",
        "version" : "2.0"
    },
    "scene" : 0,
    "scenes" : [
        {
            "name" : "Scene",
            "nodes" : [
                0,
                1,
                2,
                3,
                4,
                5
            ]
        }
    ],
    "nodes" : [
        {
            "mesh" : 0,
            "name" : "Cube"
        },
        {
            "mesh" : 1,
            "name" : "Icosphere",
            "scale" : [
                1.0248724222183228,
                1.0248724222183228,
                1.0248724222183228
            ],
            "translation" : [
                -0.226650670170784,
                3.669092893600464,
                -0.11557997763156891
            ]
        },
        {
            "mesh" : 2,
            "name" : "Icosphere1",
            "scale" : [
                0.7485668659210205,
                0.7485668659210205,
                0.7485668659210205
            ],
            "translation" : [
                -1.6722456216812134,
                2.854968786239624,
                0.12975561618804932
            ]
        },
        {
            "mesh" : 3,
            "name" : "Icosphere2",
            "scale" : [
                0.44510897994041443,
                0.44510897994041443,
                0.44510897994041443
            ],
            "translation" : [
                -0.8495534062385559,
                2.581794500350952,
                1.0812791585922241
            ]
        },
        {
            "mesh" : 4,
            "name" : "Icosphere3",
            "scale" : [
                0.5197835564613342,
                0.5197835564613342,
                0.5197835564613342
            ],
            "translation" : [
                0.08811622858047485,
                2.5164198875427246,
                -0.4730921685695648
            ]
        },
        {
            "mesh" : 5,
            "name" : "Cube1"
        }
    ],
    "materials" : [
        {
            "doubleSided" : true,
            "name" : "Material3",
            "pbrMetallicRoughness" : {
                "baseColorFactor" : [
                    0.19945798814296722,
                    0.11695077270269394,
                    0.04111288860440254,
                    1
                ],
                "metallicFactor" : 0,
                "roughnessFactor" : 0.5
            }
        },
        {
            "doubleSided" : true,
            "name" : "Material1",
            "pbrMetallicRoughness" : {
                "baseColorFactor" : [
                    0.20276685059070587,
                    0.40766793489456177,
                    0.18353697657585144,
                    1
                ],
                "metallicFactor" : 0,
                "roughnessFactor" : 0.5
            }
        },
        {
            "doubleSided" : true,
            "name" : "Material2",
            "pbrMetallicRoughness" : {
                "baseColorFactor" : [
                    0.15143008530139923,
                    0.27708640694618225,
                    0.04459458217024803,
                    1
                ],
                "metallicFactor" : 0,
                "roughnessFactor" : 0.5
            }
        }
    ],
    "meshes" : [
        {
            "name" : "Cube2",
            "primitives" : [
                {
                    "attributes" : {
                        "POSITION" : 0,
                        "NORMAL" : 1,
                        "TEXCOORD_0" : 2
                    },
                    "indices" : 3,
                    "material" : 0
                }
            ]
        },
        {
            "name" : "Icosphere",
            "primitives" : [
                {
                    "attributes" : {
                        "POSITION" : 4,
                        "NORMAL" : 5,
                        "TEXCOORD_0" : 6
                    },
                    "indices" : 7,
                    "material" : 1
                }
            ]
        },
        {
            "name" : "Icosphere1",
            "primitives" : [
                {
                    "attributes" : {
                        "POSITION" : 8,
                        "NORMAL" : 9,
                        "TEXCOORD_0" : 10
                    },
                    "indices" : 7,
                    "material" : 2
                }
            ]
        },
        {
            "name" : "Icosphere2",
            "primitives" : [
                {
                    "attributes" : {
                        "POSITION" : 11,
                        "NORMAL" : 12,
                        "TEXCOORD_0" : 13
                    },
                    "indices" : 7,
                    "material" : 1
                }
            ]
        },
        {
            "name" : "Icosphere3",
            "primitives" : [
                {
                    "attributes" : {
                        "POSITION" : 14,
                        "NORMAL" : 15,
                        "TEXCOORD_0" : 16
                    },
                    "indices" : 7,
                    "material" : 2
                }
            ]
        },
        {
            "name" : "Cube3",
            "primitives" : [
                {
                    "attributes" : {
                        "POSITION" : 17,
                        "NORMAL" : 18,
                        "TEXCOORD_0" : 19
                    },
                    "indices" : 20,
                    "material" : 2
                }
            ]
        }
    ],
    "accessors" : [
        {
            "bufferView" : 0,
            "componentType" : 5126,
            "count" : 396,
            "max" : [
                0.9773440361022949,
                3.1855037212371826,
                1.0888893604278564
            ],
            "min" : [
                -1.3770091533660889,
                0.008776210248470306,
                -0.32529765367507935
            ],
            "type" : "VEC3"
        },
        {
            "bufferView" : 1,
            "componentType" : 5126,
            "count" : 396,
            "type" : "VEC3"
        },
        {
            "bufferView" : 2,
            "componentType" : 5126,
            "count" : 396,
            "type" : "VEC2"
        },
        {
            "bufferView" : 3,
            "componentType" : 5123,
            "count" : 594,
            "type" : "SCALAR"
        },
        {
            "bufferView" : 4,
            "componentType" : 5126,
            "count" : 240,
            "max" : [
                0.9510578513145447,
                1,
                0.9999999403953552
            ],
            "min" : [
                -0.9510578513145447,
                -1,
                -0.9999999403953552
            ],
            "type" : "VEC3"
        },
        {
            "bufferView" : 5,
            "componentType" : 5126,
            "count" : 240,
            "type" : "VEC3"
        },
        {
            "bufferView" : 6,
            "componentType" : 5126,
            "count" : 240,
            "type" : "VEC2"
        },
        {
            "bufferView" : 7,
            "componentType" : 5123,
            "count" : 240,
            "type" : "SCALAR"
        },
        {
            "bufferView" : 8,
            "componentType" : 5126,
            "count" : 240,
            "max" : [
                0.9510578513145447,
                1,
                0.9999999403953552
            ],
            "min" : [
                -0.9510578513145447,
                -1,
                -0.9999999403953552
            ],
            "type" : "VEC3"
        },
        {
            "bufferView" : 9,
            "componentType" : 5126,
            "count" : 240,
            "type" : "VEC3"
        },
        {
            "bufferView" : 10,
            "componentType" : 5126,
            "count" : 240,
            "type" : "VEC2"
        },
        {
            "bufferView" : 11,
            "componentType" : 5126,
            "count" : 240,
            "max" : [
                0.9510578513145447,
                1,
                0.9999999403953552
            ],
            "min" : [
                -0.9510578513145447,
                -1,
                -0.9999999403953552
            ],
            "type" : "VEC3"
        },
        {
            "bufferView" : 12,
            "componentType" : 5126,
            "count" : 240,
            "type" : "VEC3"
        },
        {
            "bufferView" : 13,
            "componentType" : 5126,
            "count" : 240,
            "type" : "VEC2"
        },
        {
            "bufferView" : 14,
            "componentType" : 5126,
            "count" : 240,
            "max" : [
                0.9510578513145447,
                1,
                0.9999999403953552
            ],
            "min" : [
                -0.9510578513145447,
                -1,
                -0.9999999403953552
            ],
            "type" : "VEC3"
        },
        {
            "bufferView" : 15,
            "componentType" : 5126,
            "count" : 240,
            "type" : "VEC3"
        },
        {
            "bufferView" : 16,
            "componentType" : 5126,
            "count" : 240,
            "type" : "VEC2"
        },
        {
            "bufferView" : 17,
            "componentType" : 5126,
            "count" : 240,
            "max" : [
                1.7115875482559204,
                3.6749203205108643,
                0.7959423065185547
            ],
            "min" : [
                0.5003914833068848,
                2.401395082473755,
                -0.4775828421115875
            ],
            "type" : "VEC3"
        },
        {
            "bufferView" : 18,
            "componentType" : 5126,
            "count" : 240,
            "type" : "VEC3"
        },
        {
            "bufferView" : 19,
            "componentType" : 5126,
            "count" : 240,
            "type" : "VEC2"
        },
        {
            "bufferView" : 20,
            "componentType" : 5123,
            "count" : 240,
            "type" : "SCALAR"
        }
    ],
    "bufferViews" : [
        {
            "buffer" : 0,
            "byteLength" : 4752,
            "byteOffset" : 0
        },
        {
            "buffer" : 0,
            "byteLength" : 4752,
            "byteOffset" : 4752
        },
        {
            "buffer" : 0,
            "byteLength" : 3168,
            "byteOffset" : 9504
        },
        {
            "buffer" : 0,
            "byteLength" : 1188,
            "byteOffset" : 12672
        },
        {
            "buffer" : 0,
            "byteLength" : 2880,
            "byteOffset" : 13860
        },
        {
            "buffer" : 0,
            "byteLength" : 2880,
            "byteOffset" : 16740
        },
        {
            "buffer" : 0,
            "byteLength" : 1920,
            "byteOffset" : 19620
        },
        {
            "buffer" : 0,
            "byteLength" : 480,
            "byteOffset" : 21540
        },
        {
            "buffer" : 0,
            "byteLength" : 2880,
            "byteOffset" : 22020
        },
        {
            "buffer" : 0,
            "byteLength" : 2880,
            "byteOffset" : 24900
        },
        {
            "buffer" : 0,
            "byteLength" : 1920,
            "byteOffset" : 27780
        },
        {
            "buffer" : 0,
            "byteLength" : 2880,
            "byteOffset" : 29700
        },
        {
            "buffer" : 0,
            "byteLength" : 2880,
            "byteOffset" : 32580
        },
        {
            "buffer" : 0,
            "byteLength" : 1920,
            "byteOffset" : 35460
        },
        {
            "buffer" : 0,
            "byteLength" : 2880,
            "byteOffset" : 37380
        },
        {
            "buffer" : 0,
            "byteLength" : 2880,
            "byteOffset" : 40260
        },
        {
            "buffer" : 0,
            "byteLength" : 1920,
            "byteOffset" : 43140
        },
        {
            "buffer" : 0,
            "byteLength" : 2880,
            "byteOffset" : 45060
        },
        {
            "buffer" : 0,
            "byteLength" : 2880,
            "byteOffset" : 47940
        },
        {
            "buffer" : 0,
            "byteLength" : 1920,
            "byteOffset" : 50820
        },
        {
            "buffer" : 0,
            "byteLength" : 480,
            "byteOffset" : 52740
        }
    ],
    "buffers" : [
        {
            "byteLength" : 53220,
            "uri" : "data:application/octet-stream;base64,"
        }
    ]
}
